REM DIRINDEX 1\2\4\18,1\2\4\19,1\2\5\20,1\2\5\21,1\2\6\22,1\2\7\23,1\2\8\24,1\2\8\25,1\2\9\26,1\2\10\27,1\3\11\28,1\3\11\29,1\3\11\30,1\3\11\31,1\3\12\32,1\3\12\33,1\3\12\34,1\3\12\35,1\3\13\36,1\3\13\37,1\3\14\38,1\3\14\39,1\3\15\40,1\3\15\41,1\3\15\42,1\3\16\43,1\3\16\44,1\3\17\45,1\3\17\46
REM DIRNAME cjc024,folder01,folder02,folder03,folder04,folder05,folder06,folder07,folder08,folder09,folder10,folder11,folder12,folder13,folder14,folder15,folder16,folder17,folder18,folder19,folder20,folder21,folder22,folder23,folder24,folder25,folder26,folder27,folder28,folder29,folder30,folder31,folder32,folder33,folder34,folder35,folder36,folder37,folder38,folder39,folder40,folder41,folder42,folder43,folder44,folder45
TITLE ""
FILE "12.mp3" MP3
  TRACK 01 AUDIO
    TITLE "0:"
    INDEX 01 00:00:00
  TRACK 02 AUDIO
    TITLE "18:cjc024_1767"
    INDEX 01 00:00:13
  TRACK 03 AUDIO
    TITLE "0:"
    INDEX 01 00:01:17
  TRACK 04 AUDIO
    TITLE "19:cjc024_1768"
    INDEX 01 00:01:42
  TRACK 05 AUDIO
    TITLE "0:"
    INDEX 01 00:03:10
  TRACK 06 AUDIO
    TITLE "18:cjc024_1769"
    INDEX 01 00:04:09
  TRACK 07 AUDIO
    TITLE "0:"
    INDEX 01 00:05:20
  TRACK 08 AUDIO
    TITLE "19:cjc024_1770"
    INDEX 01 00:05:50
  TRACK 09 AUDIO
    TITLE "0:"
    INDEX 01 00:07:17
  TRACK 10 AUDIO
    TITLE "18:cjc024_1771"
    INDEX 01 00:08:21
  TRACK 11 AUDIO
    TITLE "0:"
    INDEX 01 00:09:32
  TRACK 12 AUDIO
    TITLE "19:cjc024_1772"
    INDEX 01 00:09:59
  TRACK 13 AUDIO
    TITLE "0:"
    INDEX 01 00:11:56
  TRACK 14 AUDIO
    TITLE "18:cjc024_1773"
    INDEX 01 00:12:58
  TRACK 15 AUDIO
    TITLE "0:"
    INDEX 01 00:14:00
  TRACK 16 AUDIO
    TITLE "19:cjc024_1774"
    INDEX 01 00:14:25
  TRACK 17 AUDIO
    TITLE "0:"
    INDEX 01 00:16:28
  TRACK 18 AUDIO
    TITLE "18:cjc024_1775"
    INDEX 01 00:17:27
  TRACK 19 AUDIO
    TITLE "0:"
    INDEX 01 00:18:39
  TRACK 20 AUDIO
    TITLE "19:cjc024_1776"
    INDEX 01 00:18:68
  TRACK 21 AUDIO
    TITLE "0:"
    INDEX 01 00:22:21
  TRACK 22 AUDIO
    TITLE "18:cjc024_1777"
    INDEX 01 00:23:22
  TRACK 23 AUDIO
    TITLE "0:"
    INDEX 01 00:24:49
  TRACK 24 AUDIO
    TITLE "19:cjc024_1778"
    INDEX 01 00:24:74
  TRACK 25 AUDIO
    TITLE "0:"
    INDEX 01 00:27:41
  TRACK 26 AUDIO
    TITLE "18:cjc024_1779"
    INDEX 01 00:28:39
  TRACK 27 AUDIO
    TITLE "0:"
    INDEX 01 00:29:62
  TRACK 28 AUDIO
    TITLE "19:cjc024_1780"
    INDEX 01 00:30:10
  TRACK 29 AUDIO
    TITLE "0:"
    INDEX 01 00:32:11
  TRACK 30 AUDIO
    TITLE "18:cjc024_1781"
    INDEX 01 00:33:21
  TRACK 31 AUDIO
    TITLE "0:"
    INDEX 01 00:34:55
  TRACK 32 AUDIO
    TITLE "19:cjc024_1782"
    INDEX 01 00:35:08
  TRACK 33 AUDIO
    TITLE "0:"
    INDEX 01 00:37:65
  TRACK 34 AUDIO
    TITLE "18:cjc024_1783"
    INDEX 01 00:38:69
  TRACK 35 AUDIO
    TITLE "0:"
    INDEX 01 00:39:62
  TRACK 36 AUDIO
    TITLE "19:cjc024_1784"
    INDEX 01 00:40:13
  TRACK 37 AUDIO
    TITLE "0:"
    INDEX 01 00:42:57
  TRACK 38 AUDIO
    TITLE "18:cjc024_1785"
    INDEX 01 00:43:60
  TRACK 39 AUDIO
    TITLE "0:"
    INDEX 01 00:45:08
  TRACK 40 AUDIO
    TITLE "19:cjc024_1786"
    INDEX 01 00:45:33
  TRACK 41 AUDIO
    TITLE "0:"
    INDEX 01 00:47:03
  TRACK 42 AUDIO
    TITLE "18:cjc024_1787"
    INDEX 01 00:48:02
  TRACK 43 AUDIO
    TITLE "0:"
    INDEX 01 00:49:16
  TRACK 44 AUDIO
    TITLE "19:cjc024_1788"
    INDEX 01 00:49:41
  TRACK 45 AUDIO
    TITLE "0:"
    INDEX 01 00:50:74
  TRACK 46 AUDIO
    TITLE "18:cjc024_1789"
    INDEX 01 00:51:73
  TRACK 47 AUDIO
    TITLE "0:"
    INDEX 01 00:53:11
  TRACK 48 AUDIO
    TITLE "19:cjc024_1790"
    INDEX 01 00:53:35
  TRACK 49 AUDIO
    TITLE "0:"
    INDEX 01 00:55:30
  TRACK 50 AUDIO
    TITLE "18:cjc024_1791"
    INDEX 01 00:56:31
  TRACK 51 AUDIO
    TITLE "0:"
    INDEX 01 00:57:37
  TRACK 52 AUDIO
    TITLE "19:cjc024_1792"
    INDEX 01 00:57:60
  TRACK 53 AUDIO
    TITLE "0:"
    INDEX 01 00:59:49
  TRACK 54 AUDIO
    TITLE "18:cjc024_1793"
    INDEX 01 01:00:51
  TRACK 55 AUDIO
    TITLE "0:"
    INDEX 01 01:01:70
  TRACK 56 AUDIO
    TITLE "19:cjc024_1794"
    INDEX 01 01:02:20
  TRACK 57 AUDIO
    TITLE "0:"
    INDEX 01 01:03:69
  TRACK 58 AUDIO
    TITLE "18:cjc024_1795"
    INDEX 01 01:04:68
  TRACK 59 AUDIO
    TITLE "0:"
    INDEX 01 01:06:02
  TRACK 60 AUDIO
    TITLE "19:cjc024_1796"
    INDEX 01 01:06:28
  TRACK 61 AUDIO
    TITLE "0:"
    INDEX 01 01:09:14
  TRACK 62 AUDIO
    TITLE "18:cjc024_1797"
    INDEX 01 01:10:16
  TRACK 63 AUDIO
    TITLE "0:"
    INDEX 01 01:11:35
  TRACK 64 AUDIO
    TITLE "19:cjc024_1798"
    INDEX 01 01:11:58
  TRACK 65 AUDIO
    TITLE "0:"
    INDEX 01 01:13:55
  TRACK 66 AUDIO
    TITLE "18:cjc024_1799"
    INDEX 01 01:14:55
  TRACK 67 AUDIO
    TITLE "0:"
    INDEX 01 01:15:62
  TRACK 68 AUDIO
    TITLE "19:cjc024_1800"
    INDEX 01 01:16:12
  TRACK 69 AUDIO
    TITLE "0:"
    INDEX 01 01:17:49
  TRACK 70 AUDIO
    TITLE "18:cjc024_1801"
    INDEX 01 01:18:49
  TRACK 71 AUDIO
    TITLE "0:"
    INDEX 01 01:19:68
  TRACK 72 AUDIO
    TITLE "19:cjc024_1802"
    INDEX 01 01:20:18
  TRACK 73 AUDIO
    TITLE "0:"
    INDEX 01 01:22:27
  TRACK 74 AUDIO
    TITLE "18:cjc024_1803"
    INDEX 01 01:23:28
  TRACK 75 AUDIO
    TITLE "0:"
    INDEX 01 01:24:26
  TRACK 76 AUDIO
    TITLE "19:cjc024_1804"
    INDEX 01 01:24:51
  TRACK 77 AUDIO
    TITLE "0:"
    INDEX 01 01:26:40
  TRACK 78 AUDIO
    TITLE "18:cjc024_1805"
    INDEX 01 01:27:42
  TRACK 79 AUDIO
    TITLE "0:"
    INDEX 01 01:28:51
  TRACK 80 AUDIO
    TITLE "19:cjc024_1806"
    INDEX 01 01:29:03
  TRACK 81 AUDIO
    TITLE "0:"
    INDEX 01 01:31:49
  TRACK 82 AUDIO
    TITLE "18:cjc024_1807"
    INDEX 01 01:32:51
  TRACK 83 AUDIO
    TITLE "0:"
    INDEX 01 01:34:06
  TRACK 84 AUDIO
    TITLE "19:cjc024_1808"
    INDEX 01 01:34:32
  TRACK 85 AUDIO
    TITLE "0:"
    INDEX 01 01:36:54
  TRACK 86 AUDIO
    TITLE "18:cjc024_1809"
    INDEX 01 01:37:56
  TRACK 87 AUDIO
    TITLE "0:"
    INDEX 01 01:38:69
  TRACK 88 AUDIO
    TITLE "19:cjc024_1810"
    INDEX 01 01:39:15
  TRACK 89 AUDIO
    TITLE "0:"
    INDEX 01 01:41:05
  TRACK 90 AUDIO
    TITLE "18:cjc024_1811"
    INDEX 01 01:42:06
  TRACK 91 AUDIO
    TITLE "0:"
    INDEX 01 01:43:39
  TRACK 92 AUDIO
    TITLE "19:cjc024_1812"
    INDEX 01 01:43:62
  TRACK 93 AUDIO
    TITLE "0:"
    INDEX 01 01:45:57
  TRACK 94 AUDIO
    TITLE "18:cjc024_1813"
    INDEX 01 01:46:65
  TRACK 95 AUDIO
    TITLE "0:"
    INDEX 01 01:47:70
  TRACK 96 AUDIO
    TITLE "19:cjc024_1814"
    INDEX 01 01:48:20
  TRACK 97 AUDIO
    TITLE "0:"
    INDEX 01 01:49:69
  TRACK 98 AUDIO
    TITLE "18:cjc024_1815"
    INDEX 01 01:50:68
  TRACK 99 AUDIO
    TITLE "0:"
    INDEX 01 01:52:02
  TRACK 100 AUDIO
    TITLE "19:cjc024_1816"
    INDEX 01 01:52:26
  TRACK 101 AUDIO
    TITLE "0:"
    INDEX 01 01:54:33
  TRACK 102 AUDIO
    TITLE "18:cjc024_1817"
    INDEX 01 01:55:40
  TRACK 103 AUDIO
    TITLE "0:"
    INDEX 01 01:56:61
  TRACK 104 AUDIO
    TITLE "19:cjc024_1818"
    INDEX 01 01:57:09
  TRACK 105 AUDIO
    TITLE "0:"
    INDEX 01 01:58:52
  TRACK 106 AUDIO
    TITLE "18:cjc024_1819"
    INDEX 01 01:59:53
  TRACK 107 AUDIO
    TITLE "0:"
    INDEX 01 02:00:61
  TRACK 108 AUDIO
    TITLE "19:cjc024_1820"
    INDEX 01 02:01:19
  TRACK 109 AUDIO
    TITLE "0:"
    INDEX 01 02:03:10
  TRACK 110 AUDIO
    TITLE "18:cjc024_1821"
    INDEX 01 02:04:12
  TRACK 111 AUDIO
    TITLE "0:"
    INDEX 01 02:05:34
  TRACK 112 AUDIO
    TITLE "19:cjc024_1822"
    INDEX 01 02:05:66
  TRACK 113 AUDIO
    TITLE "0:"
    INDEX 01 02:08:31
  TRACK 114 AUDIO
    TITLE "18:cjc024_1823"
    INDEX 01 02:09:30
  TRACK 115 AUDIO
    TITLE "0:"
    INDEX 01 02:10:45
  TRACK 116 AUDIO
    TITLE "19:cjc024_1824"
    INDEX 01 02:10:71
  TRACK 117 AUDIO
    TITLE "0:"
    INDEX 01 02:13:07
  TRACK 118 AUDIO
    TITLE "18:cjc024_1825"
    INDEX 01 02:14:02
  TRACK 119 AUDIO
    TITLE "0:"
    INDEX 01 02:15:19
  TRACK 120 AUDIO
    TITLE "19:cjc024_1826"
    INDEX 01 02:15:41
  TRACK 121 AUDIO
    TITLE "0:"
    INDEX 01 02:17:38
  TRACK 122 AUDIO
    TITLE "18:cjc024_1827"
    INDEX 01 02:18:37
  TRACK 123 AUDIO
    TITLE "0:"
    INDEX 01 02:19:64
  TRACK 124 AUDIO
    TITLE "19:cjc024_1828"
    INDEX 01 02:20:14
  TRACK 125 AUDIO
    TITLE "0:"
    INDEX 01 02:24:18
  TRACK 126 AUDIO
    TITLE "18:cjc024_1829"
    INDEX 01 02:25:20
  TRACK 127 AUDIO
    TITLE "0:"
    INDEX 01 02:26:25
  TRACK 128 AUDIO
    TITLE "19:cjc024_1830"
    INDEX 01 02:26:50
  TRACK 129 AUDIO
    TITLE "0:"
    INDEX 01 02:28:45
  TRACK 130 AUDIO
    TITLE "18:cjc024_1831"
    INDEX 01 02:29:45
  TRACK 131 AUDIO
    TITLE "0:"
    INDEX 01 02:30:58
  TRACK 132 AUDIO
    TITLE "19:cjc024_1832"
    INDEX 01 02:31:16
  TRACK 133 AUDIO
    TITLE "0:"
    INDEX 01 02:33:45
  TRACK 134 AUDIO
    TITLE "18:cjc024_1833"
    INDEX 01 02:34:46
  TRACK 135 AUDIO
    TITLE "0:"
    INDEX 01 02:35:69
  TRACK 136 AUDIO
    TITLE "19:cjc024_1834"
    INDEX 01 02:36:21
  TRACK 137 AUDIO
    TITLE "0:"
    INDEX 01 02:38:36
  TRACK 138 AUDIO
    TITLE "18:cjc024_1835"
    INDEX 01 02:39:37
  TRACK 139 AUDIO
    TITLE "0:"
    INDEX 01 02:40:50
  TRACK 140 AUDIO
    TITLE "19:cjc024_1836"
    INDEX 01 02:41:01
  TRACK 141 AUDIO
    TITLE "0:"
    INDEX 01 02:43:04
  TRACK 142 AUDIO
    TITLE "18:cjc024_1837"
    INDEX 01 02:44:03
  TRACK 143 AUDIO
    TITLE "0:"
    INDEX 01 02:45:12
  TRACK 144 AUDIO
    TITLE "19:cjc024_1838"
    INDEX 01 02:45:38
  TRACK 145 AUDIO
    TITLE "0:"
    INDEX 01 02:47:41
  TRACK 146 AUDIO
    TITLE "18:cjc024_1839"
    INDEX 01 02:48:42
  TRACK 147 AUDIO
    TITLE "0:"
    INDEX 01 02:49:49
  TRACK 148 AUDIO
    TITLE "19:cjc024_1840"
    INDEX 01 02:50:00
  TRACK 149 AUDIO
    TITLE "0:"
    INDEX 01 02:51:54
  TRACK 150 AUDIO
    TITLE "18:cjc024_1841"
    INDEX 01 02:52:58
  TRACK 151 AUDIO
    TITLE "0:"
    INDEX 01 02:53:71
  TRACK 152 AUDIO
    TITLE "19:cjc024_1842"
    INDEX 01 02:54:23
  TRACK 153 AUDIO
    TITLE "0:"
    INDEX 01 02:55:74
  TRACK 154 AUDIO
    TITLE "18:cjc024_1843"
    INDEX 01 02:57:00
  TRACK 155 AUDIO
    TITLE "0:"
    INDEX 01 02:58:23
  TRACK 156 AUDIO
    TITLE "19:cjc024_1844"
    INDEX 01 02:58:48
  TRACK 157 AUDIO
    TITLE "0:"
    INDEX 01 03:01:09
  TRACK 158 AUDIO
    TITLE "18:cjc024_1845"
    INDEX 01 03:02:07
  TRACK 159 AUDIO
    TITLE "0:"
    INDEX 01 03:03:16
  TRACK 160 AUDIO
    TITLE "19:cjc024_1846"
    INDEX 01 03:03:42
  TRACK 161 AUDIO
    TITLE "0:"
    INDEX 01 03:05:31
  TRACK 162 AUDIO
    TITLE "18:cjc024_1847"
    INDEX 01 03:06:32
  TRACK 163 AUDIO
    TITLE "0:"
    INDEX 01 03:07:43
  TRACK 164 AUDIO
    TITLE "19:cjc024_1848"
    INDEX 01 03:08:00
  TRACK 165 AUDIO
    TITLE "0:"
    INDEX 01 03:10:69
  TRACK 166 AUDIO
    TITLE "18:cjc024_1849"
    INDEX 01 03:11:73
  TRACK 167 AUDIO
    TITLE "0:"
    INDEX 01 03:13:24
  TRACK 168 AUDIO
    TITLE "19:cjc024_1850"
    INDEX 01 03:13:48
  TRACK 169 AUDIO
    TITLE "0:"
    INDEX 01 03:15:72
  TRACK 170 AUDIO
    TITLE "18:cjc024_1851"
    INDEX 01 03:16:72
  TRACK 171 AUDIO
    TITLE "0:"
    INDEX 01 03:18:06
  TRACK 172 AUDIO
    TITLE "19:cjc024_1852"
    INDEX 01 03:18:37
  TRACK 173 AUDIO
    TITLE "0:"
    INDEX 01 03:20:36
  TRACK 174 AUDIO
    TITLE "18:cjc024_1853"
    INDEX 01 03:21:36
  TRACK 175 AUDIO
    TITLE "0:"
    INDEX 01 03:22:47
  TRACK 176 AUDIO
    TITLE "19:cjc024_1854"
    INDEX 01 03:22:74
  TRACK 177 AUDIO
    TITLE "0:"
    INDEX 01 03:25:14
  TRACK 178 AUDIO
    TITLE "18:cjc024_1855"
    INDEX 01 03:26:15
  TRACK 179 AUDIO
    TITLE "0:"
    INDEX 01 03:27:27
  TRACK 180 AUDIO
    TITLE "19:cjc024_1856"
    INDEX 01 03:27:52
  TRACK 181 AUDIO
    TITLE "0:"
    INDEX 01 03:30:25
  TRACK 182 AUDIO
    TITLE "18:cjc024_1857"
    INDEX 01 03:31:22
  TRACK 183 AUDIO
    TITLE "0:"
    INDEX 01 03:32:51
  TRACK 184 AUDIO
    TITLE "19:cjc024_1858"
    INDEX 01 03:33:08
  TRACK 185 AUDIO
    TITLE "0:"
    INDEX 01 03:35:34
  TRACK 186 AUDIO
    TITLE "18:cjc024_1859"
    INDEX 01 03:36:33
  TRACK 187 AUDIO
    TITLE "0:"
    INDEX 01 03:37:31
  TRACK 188 AUDIO
    TITLE "19:cjc024_1860"
    INDEX 01 03:37:54
  TRACK 189 AUDIO
    TITLE "0:"
    INDEX 01 03:40:17
  TRACK 190 AUDIO
    TITLE "18:cjc024_1861"
    INDEX 01 03:41:25
  TRACK 191 AUDIO
    TITLE "0:"
    INDEX 01 03:42:34
  TRACK 192 AUDIO
    TITLE "19:cjc024_1862"
    INDEX 01 03:42:57
  TRACK 193 AUDIO
    TITLE "0:"
    INDEX 01 03:44:35
  TRACK 194 AUDIO
    TITLE "18:cjc024_1863"
    INDEX 01 03:45:34
  TRACK 195 AUDIO
    TITLE "0:"
    INDEX 01 03:46:43
  TRACK 196 AUDIO
    TITLE "19:cjc024_1864"
    INDEX 01 03:46:67
  TRACK 197 AUDIO
    TITLE "0:"
    INDEX 01 03:49:36
  TRACK 198 AUDIO
    TITLE "18:cjc024_1865"
    INDEX 01 03:50:35
  TRACK 199 AUDIO
    TITLE "0:"
    INDEX 01 03:51:54
  TRACK 200 AUDIO
    TITLE "19:cjc024_1866"
    INDEX 01 03:52:03
  TRACK 201 AUDIO
    TITLE "0:"
    INDEX 01 03:54:08
  TRACK 202 AUDIO
    TITLE "18:cjc024_1867"
    INDEX 01 03:55:09
  TRACK 203 AUDIO
    TITLE "0:"
    INDEX 01 03:56:12
  TRACK 204 AUDIO
    TITLE "19:cjc024_1868"
    INDEX 01 03:56:38
  TRACK 205 AUDIO
    TITLE "0:"
    INDEX 01 03:58:13
  TRACK 206 AUDIO
    TITLE "18:cjc024_1869"
    INDEX 01 03:59:13
  TRACK 207 AUDIO
    TITLE "0:"
    INDEX 01 04:00:48
  TRACK 208 AUDIO
    TITLE "19:cjc024_1870"
    INDEX 01 04:01:02
  TRACK 209 AUDIO
    TITLE "0:"
    INDEX 01 04:02:64
  TRACK 210 AUDIO
    TITLE "18:cjc024_1871"
    INDEX 01 04:03:65
  TRACK 211 AUDIO
    TITLE "0:"
    INDEX 01 04:05:04
  TRACK 212 AUDIO
    TITLE "19:cjc024_1872"
    INDEX 01 04:05:29
  TRACK 213 AUDIO
    TITLE "0:"
    INDEX 01 04:06:74
  TRACK 214 AUDIO
    TITLE "18:cjc024_1873"
    INDEX 01 04:07:71
  TRACK 215 AUDIO
    TITLE "0:"
    INDEX 01 04:09:09
  TRACK 216 AUDIO
    TITLE "19:cjc024_1874"
    INDEX 01 04:09:35
  TRACK 217 AUDIO
    TITLE "0:"
    INDEX 01 04:11:47
  TRACK 218 AUDIO
    TITLE "18:cjc024_1875"
    INDEX 01 04:12:49
  TRACK 219 AUDIO
    TITLE "0:"
    INDEX 01 04:13:68
  TRACK 220 AUDIO
    TITLE "19:cjc024_1876"
    INDEX 01 04:14:18
  TRACK 221 AUDIO
    TITLE "0:"
    INDEX 01 04:16:45
  TRACK 222 AUDIO
    TITLE "18:cjc024_1877"
    INDEX 01 04:17:42
  TRACK 223 AUDIO
    TITLE "0:"
    INDEX 01 04:18:71
  TRACK 224 AUDIO
    TITLE "19:cjc024_1878"
    INDEX 01 04:19:19
  TRACK 225 AUDIO
    TITLE "0:"
    INDEX 01 04:20:64
  TRACK 226 AUDIO
    TITLE "18:cjc024_1879"
    INDEX 01 04:22:06
  TRACK 227 AUDIO
    TITLE "0:"
    INDEX 01 04:23:19
  TRACK 228 AUDIO
    TITLE "19:cjc024_1880"
    INDEX 01 04:23:47
  TRACK 229 AUDIO
    TITLE "0:"
    INDEX 01 04:25:14
  TRACK 230 AUDIO
    TITLE "18:cjc024_1881"
    INDEX 01 04:26:18
  TRACK 231 AUDIO
    TITLE "0:"
    INDEX 01 04:27:33
  TRACK 232 AUDIO
    TITLE "19:cjc024_1882"
    INDEX 01 04:27:56
  TRACK 233 AUDIO
    TITLE "0:"
    INDEX 01 04:29:53
  TRACK 234 AUDIO
    TITLE "18:cjc024_1883"
    INDEX 01 04:30:53
  TRACK 235 AUDIO
    TITLE "0:"
    INDEX 01 04:31:74
  TRACK 236 AUDIO
    TITLE "19:cjc024_1884"
    INDEX 01 04:32:20
  TRACK 237 AUDIO
    TITLE "0:"
    INDEX 01 04:34:39
  TRACK 238 AUDIO
    TITLE "18:cjc024_1885"
    INDEX 01 04:35:38
  TRACK 239 AUDIO
    TITLE "0:"
    INDEX 01 04:36:41
  TRACK 240 AUDIO
    TITLE "19:cjc024_1886"
    INDEX 01 04:36:67
  TRACK 241 AUDIO
    TITLE "0:"
    INDEX 01 04:38:42
  TRACK 242 AUDIO
    TITLE "18:cjc024_1887"
    INDEX 01 04:39:48
  TRACK 243 AUDIO
    TITLE "0:"
    INDEX 01 04:40:71
  TRACK 244 AUDIO
    TITLE "19:cjc024_1888"
    INDEX 01 04:41:25
  TRACK 245 AUDIO
    TITLE "0:"
    INDEX 01 04:43:20
  TRACK 246 AUDIO
    TITLE "18:cjc024_1889"
    INDEX 01 04:44:21
  TRACK 247 AUDIO
    TITLE "0:"
    INDEX 01 04:45:56
  TRACK 248 AUDIO
    TITLE "19:cjc024_1890"
    INDEX 01 04:46:18
  TRACK 249 AUDIO
    TITLE "0:"
    INDEX 01 04:48:13
  TRACK 250 AUDIO
    TITLE "18:cjc024_1891"
    INDEX 01 04:49:20
  TRACK 251 AUDIO
    TITLE "0:"
    INDEX 01 04:50:40
  TRACK 252 AUDIO
    TITLE "19:cjc024_1892"
    INDEX 01 04:50:71
  TRACK 253 AUDIO
    TITLE "0:"
    INDEX 01 04:53:07
  TRACK 254 AUDIO
    TITLE "18:cjc024_1893"
    INDEX 01 04:54:04
  TRACK 255 AUDIO
    TITLE "0:"
    INDEX 01 04:55:19
  TRACK 256 AUDIO
    TITLE "19:cjc024_1894"
    INDEX 01 04:55:47
  TRACK 257 AUDIO
    TITLE "0:"
    INDEX 01 04:57:28
  TRACK 258 AUDIO
    TITLE "18:cjc024_1895"
    INDEX 01 04:58:23
  TRACK 259 AUDIO
    TITLE "0:"
    INDEX 01 04:59:33
  TRACK 260 AUDIO
    TITLE "19:cjc024_1896"
    INDEX 01 04:59:54
  TRACK 261 AUDIO
    TITLE "0:"
    INDEX 01 05:01:26
  TRACK 262 AUDIO
    TITLE "18:cjc024_1897"
    INDEX 01 05:02:25
  TRACK 263 AUDIO
    TITLE "0:"
    INDEX 01 05:03:48
  TRACK 264 AUDIO
    TITLE "19:cjc024_1898"
    INDEX 01 05:03:74
  TRACK 265 AUDIO
    TITLE "0:"
    INDEX 01 05:06:66
  TRACK 266 AUDIO
    TITLE "18:cjc024_1899"
    INDEX 01 05:07:65
  TRACK 267 AUDIO
    TITLE "0:"
    INDEX 01 05:09:25
  TRACK 268 AUDIO
    TITLE "19:cjc024_1900"
    INDEX 01 05:09:57
  TRACK 269 AUDIO
    TITLE "0:"
    INDEX 01 05:12:06
  TRACK 270 AUDIO
    TITLE "18:cjc024_1901"
    INDEX 01 05:13:05
  TRACK 271 AUDIO
    TITLE "0:"
    INDEX 01 05:14:22
  TRACK 272 AUDIO
    TITLE "19:cjc024_1902"
    INDEX 01 05:14:64
  TRACK 273 AUDIO
    TITLE "0:"
    INDEX 01 05:16:43
  TRACK 274 AUDIO
    TITLE "18:cjc024_1903"
    INDEX 01 05:17:42
  TRACK 275 AUDIO
    TITLE "0:"
    INDEX 01 05:18:61
  TRACK 276 AUDIO
    TITLE "19:cjc024_1904"
    INDEX 01 05:19:16
  TRACK 277 AUDIO
    TITLE "0:"
    INDEX 01 05:21:28
  TRACK 278 AUDIO
    TITLE "18:cjc024_1905"
    INDEX 01 05:22:38
  TRACK 279 AUDIO
    TITLE "0:"
    INDEX 01 05:23:43
  TRACK 280 AUDIO
    TITLE "19:cjc024_1906"
    INDEX 01 05:23:68
  TRACK 281 AUDIO
    TITLE "0:"
    INDEX 01 05:26:12
  TRACK 282 AUDIO
    TITLE "18:cjc024_1907"
    INDEX 01 05:27:11
  TRACK 283 AUDIO
    TITLE "0:"
    INDEX 01 05:28:34
  TRACK 284 AUDIO
    TITLE "19:cjc024_1908"
    INDEX 01 05:28:64
  TRACK 285 AUDIO
    TITLE "0:"
    INDEX 01 05:30:31
  TRACK 286 AUDIO
    TITLE "18:cjc024_1909"
    INDEX 01 05:31:40
  TRACK 287 AUDIO
    TITLE "0:"
    INDEX 01 05:32:60
  TRACK 288 AUDIO
    TITLE "19:cjc024_1910"
    INDEX 01 05:33:16
  TRACK 289 AUDIO
    TITLE "0:"
    INDEX 01 05:36:00
  TRACK 290 AUDIO
    TITLE "18:cjc024_1911"
    INDEX 01 05:37:02
  TRACK 291 AUDIO
    TITLE "0:"
    INDEX 01 05:38:25
  TRACK 292 AUDIO
    TITLE "19:cjc024_1912"
    INDEX 01 05:38:52
  TRACK 293 AUDIO
    TITLE "0:"
    INDEX 01 05:40:43
  TRACK 294 AUDIO
    TITLE "18:cjc024_1913"
    INDEX 01 05:41:49
  TRACK 295 AUDIO
    TITLE "0:"
    INDEX 01 05:42:50
  TRACK 296 AUDIO
    TITLE "19:cjc024_1914"
    INDEX 01 05:43:03
  TRACK 297 AUDIO
    TITLE "0:"
    INDEX 01 05:44:67
  TRACK 298 AUDIO
    TITLE "18:cjc024_1915"
    INDEX 01 05:45:68
  TRACK 299 AUDIO
    TITLE "0:"
    INDEX 01 05:47:32
  TRACK 300 AUDIO
    TITLE "19:cjc024_1916"
    INDEX 01 05:47:65
  TRACK 301 AUDIO
    TITLE "0:"
    INDEX 01 05:49:74
  TRACK 302 AUDIO
    TITLE "18:cjc024_1917"
    INDEX 01 05:50:73
  TRACK 303 AUDIO
    TITLE "0:"
    INDEX 01 05:52:25
  TRACK 304 AUDIO
    TITLE "19:cjc024_1918"
    INDEX 01 05:52:50
  TRACK 305 AUDIO
    TITLE "0:"
    INDEX 01 05:54:38
  TRACK 306 AUDIO
    TITLE "18:cjc024_1919"
    INDEX 01 05:55:35
  TRACK 307 AUDIO
    TITLE "0:"
    INDEX 01 05:56:60
  TRACK 308 AUDIO
    TITLE "19:cjc024_1920"
    INDEX 01 05:57:10
  TRACK 309 AUDIO
    TITLE "0:"
    INDEX 01 05:59:02
  TRACK 310 AUDIO
    TITLE "18:cjc024_1921"
    INDEX 01 06:00:01
  TRACK 311 AUDIO
    TITLE "0:"
    INDEX 01 06:01:20
  TRACK 312 AUDIO
    TITLE "19:cjc024_1922"
    INDEX 01 06:01:45
  TRACK 313 AUDIO
    TITLE "0:"
    INDEX 01 06:04:69
  TRACK 314 AUDIO
    TITLE "18:cjc024_1923"
    INDEX 01 06:05:69
  TRACK 315 AUDIO
    TITLE "0:"
    INDEX 01 06:07:19
  TRACK 316 AUDIO
    TITLE "19:cjc024_1924"
    INDEX 01 06:07:44
  TRACK 317 AUDIO
    TITLE "0:"
    INDEX 01 06:09:29
  TRACK 318 AUDIO
    TITLE "18:cjc024_1925"
    INDEX 01 06:10:33
  TRACK 319 AUDIO
    TITLE "0:"
    INDEX 01 06:11:44
  TRACK 320 AUDIO
    TITLE "19:cjc024_1926"
    INDEX 01 06:11:69
  TRACK 321 AUDIO
    TITLE "0:"
    INDEX 01 06:13:57
  TRACK 322 AUDIO
    TITLE "18:cjc024_1927"
    INDEX 01 06:14:56
  TRACK 323 AUDIO
    TITLE "0:"
    INDEX 01 06:15:73
  TRACK 324 AUDIO
    TITLE "19:cjc024_1928"
    INDEX 01 06:16:35
  TRACK 325 AUDIO
    TITLE "0:"
    INDEX 01 06:19:67
  TRACK 326 AUDIO
    TITLE "18:cjc024_1929"
    INDEX 01 06:20:68
  TRACK 327 AUDIO
    TITLE "0:"
    INDEX 01 06:22:05
  TRACK 328 AUDIO
    TITLE "19:cjc024_1930"
    INDEX 01 06:22:30
  TRACK 329 AUDIO
    TITLE "0:"
    INDEX 01 06:24:11
  TRACK 330 AUDIO
    TITLE "18:cjc024_1931"
    INDEX 01 06:25:13
  TRACK 331 AUDIO
    TITLE "0:"
    INDEX 01 06:26:28
  TRACK 332 AUDIO
    TITLE "19:cjc024_1932"
    INDEX 01 06:26:53
  TRACK 333 AUDIO
    TITLE "0:"
    INDEX 01 06:29:20
  TRACK 334 AUDIO
    TITLE "18:cjc024_1933"
    INDEX 01 06:30:22
  TRACK 335 AUDIO
    TITLE "0:"
    INDEX 01 06:31:41
  TRACK 336 AUDIO
    TITLE "19:cjc024_1934"
    INDEX 01 06:31:62
  TRACK 337 AUDIO
    TITLE "0:"
    INDEX 01 06:34:00
  TRACK 338 AUDIO
    TITLE "18:cjc024_1935"
    INDEX 01 06:35:01
  TRACK 339 AUDIO
    TITLE "0:"
    INDEX 01 06:36:05
  TRACK 340 AUDIO
    TITLE "19:cjc024_1936"
    INDEX 01 06:36:36
  TRACK 341 AUDIO
    TITLE "0:"
    INDEX 01 06:38:09
  TRACK 342 AUDIO
    TITLE "18:cjc024_1937"
    INDEX 01 06:39:11
  TRACK 343 AUDIO
    TITLE "0:"
    INDEX 01 06:40:30
  TRACK 344 AUDIO
    TITLE "19:cjc024_1938"
    INDEX 01 06:40:55
  TRACK 345 AUDIO
    TITLE "0:"
    INDEX 01 06:43:46
  TRACK 346 AUDIO
    TITLE "18:cjc024_1939"
    INDEX 01 06:44:45
  TRACK 347 AUDIO
    TITLE "0:"
    INDEX 01 06:45:66
  TRACK 348 AUDIO
    TITLE "19:cjc024_1940"
    INDEX 01 06:46:15
  TRACK 349 AUDIO
    TITLE "0:"
    INDEX 01 06:48:24
  TRACK 350 AUDIO
    TITLE "18:cjc024_1941"
    INDEX 01 06:49:21
  TRACK 351 AUDIO
    TITLE "0:"
    INDEX 01 06:50:42
  TRACK 352 AUDIO
    TITLE "19:cjc024_1942"
    INDEX 01 06:51:00
  TRACK 353 AUDIO
    TITLE "0:"
    INDEX 01 06:53:23
  TRACK 354 AUDIO
    TITLE "18:cjc024_1943"
    INDEX 01 06:54:20
  TRACK 355 AUDIO
    TITLE "0:"
    INDEX 01 06:55:35
  TRACK 356 AUDIO
    TITLE "19:cjc024_1944"
    INDEX 01 06:55:67
  TRACK 357 AUDIO
    TITLE "0:"
    INDEX 01 06:58:16
  TRACK 358 AUDIO
    TITLE "18:cjc024_1945"
    INDEX 01 06:59:15
  TRACK 359 AUDIO
    TITLE "0:"
    INDEX 01 07:00:29
  TRACK 360 AUDIO
    TITLE "19:cjc024_1946"
    INDEX 01 07:00:52
  TRACK 361 AUDIO
    TITLE "0:"
    INDEX 01 07:02:33
  TRACK 362 AUDIO
    TITLE "18:cjc024_1947"
    INDEX 01 07:03:33
  TRACK 363 AUDIO
    TITLE "0:"
    INDEX 01 07:04:50
  TRACK 364 AUDIO
    TITLE "19:cjc024_1948"
    INDEX 01 07:05:00
  TRACK 365 AUDIO
    TITLE "0:"
    INDEX 01 07:06:61
  TRACK 366 AUDIO
    TITLE "18:cjc024_1949"
    INDEX 01 07:07:58
  TRACK 367 AUDIO
    TITLE "0:"
    INDEX 01 07:08:73
  TRACK 368 AUDIO
    TITLE "19:cjc024_1950"
    INDEX 01 07:09:28
  TRACK 369 AUDIO
    TITLE "0:"
    INDEX 01 07:11:07
  TRACK 370 AUDIO
    TITLE "18:cjc024_1951"
    INDEX 01 07:12:08
  TRACK 371 AUDIO
    TITLE "0:"
    INDEX 01 07:13:04
  TRACK 372 AUDIO
    TITLE "19:cjc024_1952"
    INDEX 01 07:13:27
  TRACK 373 AUDIO
    TITLE "0:"
    INDEX 01 07:14:60
  TRACK 374 AUDIO
    TITLE "18:cjc024_1953"
    INDEX 01 07:15:62
  TRACK 375 AUDIO
    TITLE "0:"
    INDEX 01 07:17:02
  TRACK 376 AUDIO
    TITLE "19:cjc024_1954"
    INDEX 01 07:17:23
  TRACK 377 AUDIO
    TITLE "0:"
    INDEX 01 07:19:01
  TRACK 378 AUDIO
    TITLE "18:cjc024_1955"
    INDEX 01 07:19:71
  TRACK 379 AUDIO
    TITLE "0:"
    INDEX 01 07:21:15
  TRACK 380 AUDIO
    TITLE "19:cjc024_1956"
    INDEX 01 07:21:43
  TRACK 381 AUDIO
    TITLE "0:"
    INDEX 01 07:23:24
  TRACK 382 AUDIO
    TITLE "18:cjc024_1957"
    INDEX 01 07:24:23
  TRACK 383 AUDIO
    TITLE "0:"
    INDEX 01 07:25:38
  TRACK 384 AUDIO
    TITLE "19:cjc024_1958"
    INDEX 01 07:25:62
  TRACK 385 AUDIO
    TITLE "0:"
    INDEX 01 07:27:33
  TRACK 386 AUDIO
    TITLE "18:cjc024_1959"
    INDEX 01 07:28:33
  TRACK 387 AUDIO
    TITLE "0:"
    INDEX 01 07:29:48
  TRACK 388 AUDIO
    TITLE "19:cjc024_1960"
    INDEX 01 07:29:73
  TRACK 389 AUDIO
    TITLE "0:"
    INDEX 01 07:32:05
  TRACK 390 AUDIO
    TITLE "18:cjc024_1961"
    INDEX 01 07:33:07
  TRACK 391 AUDIO
    TITLE "0:"
    INDEX 01 07:34:22
  TRACK 392 AUDIO
    TITLE "19:cjc024_1962"
    INDEX 01 07:34:43
  TRACK 393 AUDIO
    TITLE "0:"
    INDEX 01 07:36:62
  TRACK 394 AUDIO
    TITLE "18:cjc024_1963"
    INDEX 01 07:37:61
  TRACK 395 AUDIO
    TITLE "0:"
    INDEX 01 07:39:37
  TRACK 396 AUDIO
    TITLE "19:cjc024_1964"
    INDEX 01 07:39:60
  TRACK 397 AUDIO
    TITLE "0:"
    INDEX 01 07:42:15
  TRACK 398 AUDIO
    TITLE "18:cjc024_1965"
    INDEX 01 07:43:17
  TRACK 399 AUDIO
    TITLE "0:"
    INDEX 01 07:44:26
  TRACK 400 AUDIO
    TITLE "19:cjc024_1966"
    INDEX 01 07:44:51
  TRACK 401 AUDIO
    TITLE "0:"
    INDEX 01 07:46:25
